<svg xmlns="http://www.w3.org/2000/svg" viewBox="0 0 100 100">
  <!-- Mesmo laço usado como marca no site (símbolo #bow-shape das páginas),
       centralizado num fundo rosa para continuar legível no tamanho de
       favicon. SVG em vez de .ico: um arquivo só serve todos os tamanhos,
       inclusive as telas de alta densidade. -->
  <rect width="100" height="100" rx="22" fill="#C05480"/>
  <g transform="translate(50 52) scale(0.78) translate(-50 -35)" fill="#FFF5F9">
    <path d="M50 35 C50 35 38 6 15 10 C-4 13 -4 47 15 51 C36 56 50 35 50 35 Z"/>
    <path d="M50 35 C50 35 62 6 85 10 C104 13 104 47 85 51 C64 56 50 35 50 35 Z"/>
    <rect x="42" y="26" width="16" height="18" rx="5"/>
    <path d="M45 44 L38 68 L48 60 Z"/>
    <path d="M55 44 L62 68 L52 60 Z"/>
  </g>
</svg>
